<?xml version="1.0" encoding="utf-8"?>
<!-- Generator: Adobe Illustrator 19.0.0, SVG Export Plug-In . SVG Version: 6.00 Build 0)  -->
<!DOCTYPE svg PUBLIC "-//W3C//DTD SVG 1.1//EN" "http://www.w3.org/Graphics/SVG/1.1/DTD/svg11.dtd">
<svg version="1.1" id="Layer_1" xmlns="http://www.w3.org/2000/svg" xmlns:xlink="http://www.w3.org/1999/xlink" x="0px" y="0px"
	 viewBox="0 0 331.8 79.7" style="enable-background:new 0 0 331.8 79.7;" xml:space="preserve">
<style type="text/css">
	.st0{fill:#010202;}
	.st1{fill-rule:evenodd;clip-rule:evenodd;fill:#95C11F;}
	.st2{fill-rule:evenodd;clip-rule:evenodd;fill:#36A9E1;}
	.st3{fill-rule:evenodd;clip-rule:evenodd;fill:#FCEA10;}
	.st4{fill-rule:evenodd;clip-rule:evenodd;fill:#F9B233;}
</style>
<g>
	<path class="st0" d="M162.1,61.7c-0.2,1.3-0.9,2.4-2,3.3c-1.1,0.9-2.3,1.4-3.5,1.4H116c-1.3,0-2.3-0.5-3.1-1.4
		c-0.8-0.9-1.1-2-0.9-3.3l3.3-18.5c0.2-1.3,0.9-2.4,2-3.3c1.1-0.9,2.3-1.4,3.6-1.4h29.6l1.2-6.5c0.1-0.8-0.1-1.5-0.5-2
		c-0.4-0.5-1-0.8-1.8-0.8h-10.6c-1.8,0-2.9,0.9-3.2,2.8l-0.3,1.9h-15.6l1.8-10.3c0.2-1.3,0.9-2.4,2-3.3c1.1-0.9,2.2-1.4,3.5-1.4h38
		c1.2,0,2.2,0.5,3,1.4c0.8,0.9,1.1,2,0.8,3.3L162.1,61.7z M147.9,53.4l0.2-1.8c0.2-0.7,0-1.4-0.4-1.9c-0.4-0.5-1-0.8-1.8-0.8h-13.3
		c-1.8,0-2.9,0.9-3.2,2.7l-0.3,1.8c-0.1,0.7,0.1,1.3,0.5,1.8c0.4,0.5,1,0.8,1.8,0.8h13.3C146.5,55.9,147.6,55.1,147.9,53.4z"/>
	<path class="st0" d="M217.5,61.1c-0.3,1.5-1,2.7-2.1,3.7c-1.2,1-2.5,1.5-4,1.5h-39.6c-1.3,0-2.3-0.4-3.2-1.3
		c-0.8-0.9-1.3-1.9-1.3-3.1c0-1.4,0.6-2.6,1.8-3.7l32.6-28.9h-20.1c-1.3,0-2.3-0.4-3.1-1.2c-0.8-0.8-1.2-1.8-1.2-3.1
		c0-1.6,0.6-3,1.9-4.3c1.3-1.2,2.7-1.9,4.3-1.9h36.1c1.3,0,2.4,0.5,3.3,1.4c0.8,0.9,1.3,2,1.3,3.2c0,1.5-0.6,2.7-1.7,3.7l-32.8,28.7
		h13.1l0.8-4.4h15.6L217.5,61.1z"/>
	<path class="st0" d="M271.3,61.7c-0.2,1.3-0.9,2.4-1.9,3.3c-1.1,0.9-2.3,1.4-3.6,1.4h-40.6c-1.3,0-2.3-0.5-3-1.4
		c-0.7-0.9-1-2-0.8-3.3l6.7-38c0.2-1.3,0.8-2.4,1.9-3.3c1.1-0.9,2.3-1.4,3.6-1.4h40.6c1.3,0,2.3,0.5,3,1.4c0.7,0.9,1,2,0.8,3.3
		L271.3,61.7z M257.1,53.4l3.8-21.3c0.1-0.8,0-1.5-0.4-2c-0.4-0.5-1-0.8-1.7-0.8h-13.4c-1.8,0-2.8,0.9-3.1,2.8l-3.7,21.3
		c-0.1,0.7,0.1,1.3,0.5,1.8c0.4,0.5,1,0.8,1.7,0.8h13.4c0.7,0,1.3-0.2,2-0.8C256.7,54.7,257,54.1,257.1,53.4z"/>
	<path class="st0" d="M296.1,66.3h-18.3c-1.2,0-2.2-0.4-3-1.3c-0.8-0.9-1-2-0.8-3.2l9.5-54.2c0.2-1.3,0.9-2.5,2-3.4
		c1.1-1,2.3-1.4,3.5-1.4h6.3c1.3,0,2.3,0.5,3,1.4c0.7,1,1,2.1,0.8,3.4L291,53.4c-0.1,0.7,0.1,1.3,0.5,1.8c0.4,0.5,1,0.8,1.8,0.8h4.6
		L296.1,66.3z"/>
	<path class="st0" d="M330,29.3h-5.2c-1.6,0-2.6,0.7-3,2l-5.4,30.5c-0.2,1.3-0.8,2.3-1.9,3.2c-1.1,0.9-2.2,1.3-3.5,1.3h-6.5
		c-1.2,0-2.2-0.4-2.9-1.3c-0.7-0.8-1-1.9-0.8-3.2l9.6-54.6c0.2-1.3,0.8-2.4,1.9-3.3c1.1-0.9,2.2-1.4,3.4-1.4h6.5
		c1.3,0,2.3,0.5,3,1.3c0.7,0.9,1,2,0.8,3.3L324,18.9h7.8L330,29.3z"/>
</g>
<g>
	<path id="XMLID_4_" class="st1" d="M48.7,67c-0.5,2.1-0.3,4.4,0.7,6.5c2.6,5.4,9.4,7.7,14.8,5.1c5.3-2.6,6.9-8.9,3.9-13.8
		c-1.2-1.9-2.9-3.3-4.8-4.2c-4.1-1.9-7.7-2.4-10.1-6.6c-2.6-4.6-1-9.7,3.3-12.4c-0.2-0.7-0.5-1.5-1-2.2c-2.8-4.4-9.3-6.2-14.9-4.1
		c-0.8,0.3-1.5,0.6-2.1,1c1.2,4.1-1.6,8.9-7.1,11c-2.5,1-5.1,1.2-7.4,0.8c-3.7-0.6-5.7-2.1-10.1-0.5C8.8,49.7,5.5,54.6,6.8,59
		c1.3,4.6,7.1,6.6,12.6,4.3c3.5-1.4,4.7-3.6,6.2-6c0.6-0.9,1.1-1.7,1.8-2.5c1.5-1.8,3.4-3.1,5.5-4c6.2-2.5,13.3-0.3,16.1,5
		C51.4,59.9,49.8,62.6,48.7,67z"/>
	<path id="XMLID_3_" class="st2" d="M87.2,49.5c2,0.8,3.9,2.1,5.3,3.8c3.4,4.3,2.7,9.8-2,12.1c-4.7,2.3-11.3,0.3-14.5-4.4
		c-1.2-1.8-1.7-3.8-1.6-5.6c0.3-3.7,1.7-6.3-1-10.1c-3-4.2-8.8-6.1-13.8-5c-0.6-0.6-1.2-1.2-1.6-1.9c-2.8-4.3-0.7-9.2,4.4-11.1
		c0.7-0.3,1.4-0.4,2.1-0.6c3.2,3.1,9,4.3,13.5,2.6c1.9-0.8,3.3-1.9,4-3.3c1.1-2.1,0.7-3.9,3.8-5.1c3.6-1.3,8.6-0.2,11.4,2.7
		c2.9,2.9,2.4,6.6-1.3,8.2c-2.4,1-4.6,0.5-7.2,0c-1-0.2-1.9-0.4-2.8-0.5c-2.1-0.2-4.1,0.1-5.8,0.7c-5.1,2-6.6,7.2-3.2,11.8
		C79.8,47.4,83,47.8,87.2,49.5z"/>
	<path id="XMLID_2_" class="st3" d="M52.5,5.1c0.3-0.9,0.1-1.9-0.6-2.8c-1.6-2.1-5.7-2.9-9.1-1.9c-3.5,1-5.1,3.5-3.7,5.7
		c0.6,0.9,1.7,1.6,3,2.1c2.8,1,5.4,1.2,7.1,3.5c2,2.8,0.7,6.2-3.1,8.1c0.1,0.6,0.4,1.1,0.7,1.7c2.4,3.6,8.6,5.2,13.7,3.4
		c0.7-0.2,1.3-0.5,1.9-0.9c-1.6-3.3,0.2-6.8,4.4-8.3c1.8-0.6,3.9-0.8,5.8-0.5c3.1,0.4,5.2,1.4,8.3,0.3c3.5-1.2,4.3-4.2,1.9-6.6
		c-2.3-2.3-6.7-3.2-10-2.2c-2.2,0.7-2.7,1.8-3.3,3.1c-0.2,0.5-0.5,1-0.8,1.4c-0.8,1-2.1,1.8-3.6,2.3c-4.6,1.6-10.4,0.2-12.7-2.9
		C50.6,8.5,51.8,7.2,52.5,5.1z"/>
	<path id="XMLID_1_" class="st4" d="M22.1,14.4c-1.3-0.5-2.4-1.3-2.9-2.3c-1.2-2.4,1-5.2,4.8-6.3c3.7-1.1,7.8-0.1,9.1,2.1
		c0.6,0.9,0.6,2,0.2,2.9c-0.9,2.2-2.5,3.8-1.1,6.3c1.7,3,6.4,4.5,11.1,3.7c0.5,0.4,0.9,0.9,1.3,1.5c2.3,3.7,0,8.4-5.5,10.3
		c-0.8,0.3-1.5,0.5-2.3,0.6c-2.6-3.2-8.1-4.4-13.2-2.7c-2.3,0.8-4.2,2-5.5,3.5c-2.2,2.5-2.7,4.6-6.9,6.1c-5,1.8-9.9,0.2-10.9-3.3
		c-1-3.4,2-7.2,6.7-8.7c2.9-0.9,4.8-0.5,7,0c0.8,0.2,1.7,0.4,2.5,0.4c2,0.2,4-0.1,5.9-0.7c5.5-1.9,8.3-6.3,6.5-9.7
		C27.5,15.7,25,15.4,22.1,14.4z"/>
</g>
</svg>
