<?xml version="1.0" encoding="utf-8"?>
<!-- Generator: Adobe Illustrator 19.0.0, SVG Export Plug-In . SVG Version: 6.00 Build 0)  -->
<!DOCTYPE svg PUBLIC "-//W3C//DTD SVG 1.1//EN" "http://www.w3.org/Graphics/SVG/1.1/DTD/svg11.dtd">
<svg version="1.1" id="Layer_1" xmlns="http://www.w3.org/2000/svg" xmlns:xlink="http://www.w3.org/1999/xlink" x="0px" y="0px"
	 viewBox="0 0 409.7 141.4" style="enable-background:new 0 0 409.7 141.4;" xml:space="preserve">
<style type="text/css">
	.st0{fill:#0673A9;}
	.st1{fill:#919394;}
	.st2{fill:#0977AB;stroke:#FFFFFF;stroke-miterlimit:10;}
</style>
<g id="XMLID_88_">
	<g id="XMLID_175_">
		<path id="XMLID_184_" class="st0" d="M4.7,104.7V58.3h9.4v18.3h18.4V58.3h9.4v46.4h-9.4V84.4H14.1v20.3H4.7z"/>
		<path id="XMLID_181_" class="st0" d="M49.4,87.4c0-3,0.7-5.8,2.2-8.6s3.5-4.9,6.2-6.3c2.7-1.5,5.7-2.2,8.9-2.2
			c5.1,0,9.3,1.7,12.5,5c3.2,3.3,4.9,7.5,4.9,12.5c0,5.1-1.6,9.3-4.9,12.6c-3.3,3.3-7.4,5-12.4,5c-3.1,0-6-0.7-8.8-2.1
			c-2.8-1.4-4.9-3.4-6.4-6.1C50.1,94.5,49.4,91.3,49.4,87.4z M58.5,87.9c0,3.3,0.8,5.9,2.4,7.7c1.6,1.8,3.5,2.7,5.9,2.7
			c2.3,0,4.3-0.9,5.8-2.7c1.6-1.8,2.4-4.3,2.4-7.7c0-3.3-0.8-5.8-2.4-7.6c-1.6-1.8-3.5-2.7-5.8-2.7c-2.3,0-4.3,0.9-5.9,2.7
			C59.3,82,58.5,84.6,58.5,87.9z"/>
		<path id="XMLID_179_" class="st0" d="M90.4,71.1h8.2v4.6c2.9-3.6,6.4-5.3,10.5-5.3c2.2,0,4,0.4,5.6,1.3c1.6,0.9,2.9,2.2,3.9,4
			c1.5-1.8,3.1-3.1,4.8-4c1.7-0.9,3.5-1.3,5.5-1.3c2.5,0,4.6,0.5,6.3,1.5c1.7,1,3,2.5,3.8,4.4c0.6,1.4,0.9,3.8,0.9,7v21.5H131V85.5
			c0-3.3-0.3-5.5-0.9-6.5c-0.8-1.3-2.1-1.9-3.8-1.9c-1.2,0-2.4,0.4-3.5,1.1s-1.9,1.9-2.4,3.3c-0.5,1.5-0.7,3.8-0.7,6.9v16.1h-8.9
			V86.3c0-3.3-0.2-5.4-0.5-6.3c-0.3-1-0.8-1.7-1.5-2.1s-1.6-0.7-2.7-0.7c-1.4,0-2.6,0.4-3.7,1.1c-1.1,0.7-1.9,1.8-2.4,3.2
			c-0.5,1.4-0.7,3.7-0.7,6.9v16.3h-8.9V71.1z"/>
		<path id="XMLID_176_" class="st0" d="M168.2,94l8.9,1.5c-1.1,3.2-2.9,5.7-5.4,7.4c-2.5,1.7-5.5,2.5-9.2,2.5
			c-5.8,0-10.2-1.9-13-5.7c-2.2-3.1-3.3-6.9-3.3-11.6c0-5.6,1.5-9.9,4.4-13.1c2.9-3.2,6.6-4.7,11-4.7c5,0,8.9,1.7,11.8,5
			c2.9,3.3,4.3,8.4,4.1,15.2h-22.3c0.1,2.6,0.8,4.7,2.2,6.2c1.4,1.5,3.1,2.2,5.1,2.2c1.4,0,2.6-0.4,3.5-1.1S167.7,95.7,168.2,94z
			 M168.7,85c-0.1-2.6-0.7-4.5-2-5.9c-1.3-1.3-2.8-2-4.6-2c-1.9,0-3.5,0.7-4.8,2.1s-1.9,3.3-1.9,5.8H168.7z"/>
	</g>
</g>
<g id="XMLID_69_">
	<g id="XMLID_231_">
		<path id="XMLID_247_" class="st1" d="M210.1,103.2h-5.2v-46h5.6v16.4c2.4-3,5.4-4.5,9.1-4.5c2.1,0,4,0.4,5.8,1.2s3.3,2,4.5,3.5
			c1.2,1.5,2.1,3.3,2.8,5.4c0.7,2.1,1,4.4,1,6.8c0,5.7-1.4,10.1-4.2,13.2c-2.8,3.1-6.2,4.7-10.2,4.7c-3.9,0-7-1.6-9.3-4.9V103.2z
			 M210.1,86.3c0,4,0.5,6.9,1.6,8.7c1.8,2.9,4.2,4.4,7.2,4.4c2.5,0,4.6-1.1,6.4-3.2c1.8-2.1,2.7-5.3,2.7-9.6c0-4.4-0.9-7.6-2.6-9.6
			c-1.7-2.1-3.8-3.1-6.2-3.1c-2.5,0-4.6,1.1-6.4,3.2S210.1,82.2,210.1,86.3z"/>
		<path id="XMLID_245_" class="st1" d="M262.5,103.2v-4.9c-2.6,3.8-6.1,5.6-10.6,5.6c-2,0-3.8-0.4-5.5-1.1c-1.7-0.8-3-1.7-3.8-2.8
			s-1.4-2.5-1.7-4.2c-0.2-1.1-0.3-2.9-0.3-5.3V69.8h5.6v18.5c0,3,0.1,4.9,0.3,6c0.4,1.5,1.1,2.7,2.3,3.5c1.2,0.8,2.6,1.3,4.3,1.3
			c1.7,0,3.3-0.4,4.8-1.3c1.5-0.9,2.5-2,3.2-3.5s0.9-3.7,0.9-6.5V69.8h5.6v33.3H262.5z"/>
		<path id="XMLID_242_" class="st1" d="M276.4,63.7v-6.5h5.6v6.5H276.4z M276.4,103.2V69.8h5.6v33.3H276.4z"/>
		<path id="XMLID_240_" class="st1" d="M290.6,103.2v-46h5.6v46H290.6z"/>
		<path id="XMLID_237_" class="st1" d="M326.6,103.2V99c-2.1,3.3-5.2,5-9.3,5c-2.7,0-5.1-0.7-7.3-2.2c-2.2-1.5-4-3.5-5.2-6.1
			c-1.2-2.6-1.8-5.6-1.8-9.1c0-3.3,0.6-6.3,1.7-9.1c1.1-2.7,2.8-4.8,5-6.2c2.2-1.4,4.7-2.2,7.4-2.2c2,0,3.8,0.4,5.4,1.3
			s2.8,2,3.8,3.3l0-16.5h5.6v46H326.6z M308.7,86.5c0,4.3,0.9,7.5,2.7,9.6c1.8,2.1,3.9,3.2,6.4,3.2c2.5,0,4.6-1,6.3-3
			c1.7-2,2.6-5.1,2.6-9.2c0-4.6-0.9-7.9-2.6-10c-1.8-2.1-3.9-3.2-6.5-3.2c-2.5,0-4.6,1-6.3,3.1C309.5,78.9,308.7,82.1,308.7,86.5z"
			/>
		<path id="XMLID_234_" class="st1" d="M363.5,92.4l5.8,0.8c-0.9,3.4-2.6,6.1-5.1,7.9c-2.5,1.9-5.7,2.8-9.5,2.8
			c-4.9,0-8.7-1.5-11.6-4.5c-2.9-3-4.3-7.2-4.3-12.6c0-5.6,1.4-10,4.3-13.1c2.9-3.1,6.6-4.6,11.2-4.6c4.5,0,8.1,1.5,10.9,4.6
			c2.8,3,4.2,7.3,4.2,12.8c0,0.3,0,0.8,0,1.5h-24.9c0.2,3.7,1.2,6.5,3.1,8.4c1.9,1.9,4.2,2.9,7,2.9c2.1,0,3.8-0.5,5.3-1.6
			C361.5,96.6,362.7,94.8,363.5,92.4z M344.9,83.3h18.6c-0.3-2.8-1-4.9-2.1-6.3c-1.8-2.2-4.1-3.3-7-3.3c-2.6,0-4.8,0.9-6.6,2.6
			C346.1,78.1,345.1,80.4,344.9,83.3z"/>
		<path id="XMLID_232_" class="st1" d="M376.4,103.2V69.8h5.1v5.1c1.3-2.4,2.5-3.9,3.6-4.7c1.1-0.8,2.3-1.1,3.6-1.1
			c1.9,0,3.8,0.6,5.8,1.8l-2,5.2c-1.4-0.8-2.8-1.2-4.1-1.2c-1.2,0-2.3,0.4-3.3,1.1c-1,0.7-1.7,1.8-2.1,3.1c-0.6,2-0.9,4.2-0.9,6.6
			v17.5H376.4z"/>
	</g>
</g>
<g id="XMLID_11_">
	<path id="XMLID_12_" class="st1" d="M5.8,131.8l2.3-0.4c0.1,0.9,0.5,1.6,1.1,2.1c0.6,0.5,1.4,0.7,2.5,0.7c1.1,0,1.9-0.2,2.4-0.7
		c0.5-0.4,0.8-0.9,0.8-1.5c0-0.5-0.2-0.9-0.7-1.2c-0.3-0.2-1.1-0.5-2.4-0.8c-1.7-0.4-2.9-0.8-3.5-1.1s-1.2-0.7-1.5-1.3
		s-0.5-1.2-0.5-1.8c0-0.6,0.1-1.2,0.4-1.7c0.3-0.5,0.7-1,1.1-1.3c0.4-0.3,0.9-0.5,1.5-0.7c0.6-0.2,1.3-0.3,2-0.3
		c1.1,0,2,0.2,2.8,0.5c0.8,0.3,1.4,0.7,1.8,1.3c0.4,0.5,0.7,1.2,0.8,2.1l-2.3,0.3c-0.1-0.7-0.4-1.3-0.9-1.7
		c-0.5-0.4-1.2-0.6-2.1-0.6c-1.1,0-1.8,0.2-2.3,0.5s-0.7,0.8-0.7,1.2c0,0.3,0.1,0.6,0.3,0.8c0.2,0.2,0.5,0.5,0.9,0.6
		c0.2,0.1,0.9,0.3,2.1,0.6c1.6,0.4,2.8,0.8,3.4,1.1c0.6,0.3,1.2,0.7,1.5,1.2c0.4,0.5,0.6,1.2,0.6,2c0,0.8-0.2,1.5-0.7,2.2
		c-0.5,0.7-1.1,1.2-2,1.6c-0.9,0.4-1.8,0.6-2.9,0.6c-1.8,0-3.1-0.4-4.1-1.1C6.7,134.3,6.1,133.2,5.8,131.8z"/>
	<path id="XMLID_16_" class="st1" d="M43.7,130.9l2.3,0.3c-0.2,1.6-0.9,2.8-1.9,3.7c-1,0.9-2.3,1.3-3.8,1.3c-1.9,0-3.4-0.6-4.5-1.8
		c-1.1-1.2-1.7-3-1.7-5.3c0-1.5,0.2-2.8,0.7-3.9c0.5-1.1,1.2-1.9,2.2-2.5c1-0.6,2.1-0.8,3.3-0.8c1.5,0,2.7,0.4,3.7,1.1
		c0.9,0.8,1.6,1.8,1.8,3.2l-2.3,0.3c-0.2-0.9-0.6-1.6-1.1-2.1s-1.2-0.7-2-0.7c-1.2,0-2.1,0.4-2.9,1.3s-1.1,2.2-1.1,4
		c0,1.8,0.4,3.2,1.1,4s1.6,1.3,2.8,1.3c0.9,0,1.7-0.3,2.3-0.8C43.2,132.9,43.6,132,43.7,130.9z"/>
	<path id="XMLID_35_" class="st1" d="M71.8,134.2c-0.9,0.7-1.7,1.2-2.5,1.5c-0.8,0.3-1.6,0.5-2.6,0.5c-1.5,0-2.7-0.4-3.5-1.1
		c-0.8-0.7-1.2-1.7-1.2-2.8c0-0.7,0.2-1.3,0.5-1.8c0.3-0.6,0.7-1,1.2-1.3c0.5-0.3,1.1-0.6,1.7-0.8c0.5-0.1,1.1-0.2,2.1-0.3
		c1.9-0.2,3.3-0.5,4.1-0.8c0-0.3,0-0.5,0-0.6c0-0.9-0.2-1.6-0.7-2c-0.6-0.5-1.5-0.8-2.6-0.8c-1.1,0-1.9,0.2-2.4,0.6s-0.9,1.1-1.2,2
		l-2.3-0.3c0.2-1,0.5-1.8,1-2.4s1.2-1.1,2.1-1.4c0.9-0.3,1.9-0.5,3.1-0.5c1.2,0,2.1,0.1,2.9,0.4s1.3,0.6,1.6,1s0.6,0.9,0.7,1.6
		c0.1,0.4,0.1,1.1,0.1,2.1v3.1c0,2.2,0,3.5,0.1,4.1c0.1,0.6,0.3,1.1,0.6,1.6h-2.4C72,135.4,71.9,134.8,71.8,134.2z M71.6,129
		c-0.8,0.3-2.1,0.6-3.8,0.9c-1,0.1-1.6,0.3-2,0.5c-0.4,0.2-0.7,0.4-0.9,0.8c-0.2,0.3-0.3,0.7-0.3,1.1c0,0.6,0.2,1.1,0.7,1.5
		c0.5,0.4,1.2,0.6,2.1,0.6c0.9,0,1.7-0.2,2.4-0.6c0.7-0.4,1.2-0.9,1.5-1.6c0.2-0.5,0.4-1.3,0.4-2.3V129z"/>
	<path id="XMLID_38_" class="st1" d="M92.3,135.9v-13.7h2.1v2.1c0.5-1,1-1.6,1.5-1.9s0.9-0.5,1.5-0.5c0.8,0,1.6,0.2,2.4,0.7
		l-0.8,2.2c-0.6-0.3-1.1-0.5-1.7-0.5c-0.5,0-1,0.2-1.4,0.5c-0.4,0.3-0.7,0.7-0.9,1.3c-0.3,0.8-0.4,1.7-0.4,2.7v7.2H92.3z"/>
	<path id="XMLID_42_" class="st1" d="M118.1,135.9H116V117h2.3v6.8c1-1.2,2.2-1.8,3.8-1.8c0.8,0,1.6,0.2,2.4,0.5
		c0.8,0.3,1.4,0.8,1.9,1.4s0.9,1.4,1.1,2.2c0.3,0.9,0.4,1.8,0.4,2.8c0,2.3-0.6,4.2-1.7,5.4s-2.6,1.9-4.2,1.9c-1.6,0-2.9-0.7-3.8-2
		V135.9z M118.1,128.9c0,1.6,0.2,2.8,0.7,3.6c0.7,1.2,1.7,1.8,3,1.8c1,0,1.9-0.4,2.6-1.3c0.7-0.9,1.1-2.2,1.1-3.9
		c0-1.8-0.4-3.1-1.1-4c-0.7-0.9-1.6-1.3-2.6-1.3c-1,0-1.9,0.4-2.6,1.3S118.1,127.3,118.1,128.9z"/>
	<path id="XMLID_47_" class="st1" d="M144.7,129c0-2.5,0.7-4.4,2.1-5.6c1.2-1,2.6-1.5,4.3-1.5c1.9,0,3.4,0.6,4.6,1.9
		c1.2,1.2,1.8,2.9,1.8,5.1c0,1.8-0.3,3.2-0.8,4.2c-0.5,1-1.3,1.8-2.3,2.4c-1,0.6-2.1,0.8-3.3,0.8c-1.9,0-3.5-0.6-4.7-1.8
		S144.7,131.3,144.7,129z M147.1,129c0,1.8,0.4,3.1,1.1,3.9c0.8,0.9,1.7,1.3,2.9,1.3c1.2,0,2.1-0.4,2.9-1.3c0.8-0.9,1.1-2.2,1.1-4
		c0-1.7-0.4-3-1.2-3.9c-0.8-0.9-1.7-1.3-2.9-1.3c-1.2,0-2.1,0.4-2.9,1.3C147.4,126,147.1,127.3,147.1,129z"/>
	<path id="XMLID_50_" class="st1" d="M175,135.9v-13.7h2.1v2.1c0.5-1,1-1.6,1.5-1.9s0.9-0.5,1.5-0.5c0.8,0,1.6,0.2,2.4,0.7l-0.8,2.2
		c-0.6-0.3-1.1-0.5-1.7-0.5c-0.5,0-1,0.2-1.4,0.5c-0.4,0.3-0.7,0.7-0.9,1.3c-0.3,0.8-0.4,1.7-0.4,2.7v7.2H175z"/>
	<path id="XMLID_52_" class="st1" d="M197.8,129c0-2.5,0.7-4.4,2.1-5.6c1.2-1,2.6-1.5,4.3-1.5c1.9,0,3.4,0.6,4.6,1.9
		c1.2,1.2,1.8,2.9,1.8,5.1c0,1.8-0.3,3.2-0.8,4.2s-1.3,1.8-2.3,2.4c-1,0.6-2.1,0.8-3.3,0.8c-1.9,0-3.5-0.6-4.7-1.8
		C198.4,133.1,197.8,131.3,197.8,129z M200.2,129c0,1.8,0.4,3.1,1.1,3.9c0.8,0.9,1.7,1.3,2.9,1.3c1.2,0,2.1-0.4,2.9-1.3
		c0.8-0.9,1.1-2.2,1.1-4c0-1.7-0.4-3-1.2-3.9c-0.8-0.9-1.7-1.3-2.9-1.3c-1.2,0-2.1,0.4-2.9,1.3S200.2,127.3,200.2,129z"/>
	<path id="XMLID_55_" class="st1" d="M237.2,135.9v-2c-1.1,1.5-2.5,2.3-4.4,2.3c-0.8,0-1.6-0.2-2.3-0.5c-0.7-0.3-1.2-0.7-1.6-1.2
		c-0.3-0.5-0.6-1-0.7-1.7c-0.1-0.5-0.1-1.2-0.1-2.2v-8.5h2.3v7.6c0,1.2,0,2,0.1,2.5c0.1,0.6,0.5,1.1,0.9,1.4
		c0.5,0.3,1.1,0.5,1.8,0.5s1.4-0.2,2-0.5s1-0.8,1.3-1.5c0.3-0.6,0.4-1.5,0.4-2.7v-7.3h2.3v13.7H237.2z"/>
	<path id="XMLID_57_" class="st1" d="M257.3,137l2.3,0.3c0.1,0.7,0.4,1.2,0.8,1.5c0.6,0.4,1.4,0.6,2.4,0.6c1.1,0,1.9-0.2,2.5-0.6
		c0.6-0.4,1-1,1.2-1.8c0.1-0.5,0.2-1.5,0.2-3c-1,1.2-2.3,1.8-3.8,1.8c-1.9,0-3.3-0.7-4.4-2c-1-1.4-1.5-3-1.5-4.9
		c0-1.3,0.2-2.5,0.7-3.6c0.5-1.1,1.2-2,2.1-2.6c0.9-0.6,2-0.9,3.2-0.9c1.6,0,3,0.7,4,2v-1.7h2.1V134c0,2.1-0.2,3.6-0.7,4.5
		s-1.1,1.6-2.1,2.1c-0.9,0.5-2.1,0.8-3.5,0.8c-1.6,0-3-0.4-4-1.1C257.8,139.6,257.3,138.5,257.3,137z M259.3,128.8
		c0,1.8,0.4,3.1,1.1,3.9c0.7,0.8,1.6,1.2,2.7,1.2c1.1,0,2-0.4,2.7-1.2c0.7-0.8,1.1-2.1,1.1-3.9c0-1.7-0.4-2.9-1.1-3.8
		s-1.6-1.3-2.7-1.3c-1,0-1.9,0.4-2.6,1.3S259.3,127.1,259.3,128.8z"/>
	<path id="XMLID_60_" class="st1" d="M287.3,135.9V117h2.3v6.8c1.1-1.3,2.5-1.9,4.1-1.9c1,0,1.9,0.2,2.6,0.6c0.7,0.4,1.3,1,1.6,1.7
		c0.3,0.7,0.5,1.7,0.5,3.1v8.7h-2.3v-8.7c0-1.2-0.3-2-0.8-2.5c-0.5-0.5-1.2-0.8-2.1-0.8c-0.7,0-1.3,0.2-1.9,0.5
		c-0.6,0.4-1,0.8-1.3,1.5c-0.3,0.6-0.4,1.5-0.4,2.5v7.5H287.3z"/>
	<path id="XMLID_62_" class="st1" d="M338.9,135.9V117h2.3v18.9H338.9z"/>
	<path id="XMLID_64_" class="st1" d="M364.8,133.8l0.3,2.1c-0.7,0.1-1.2,0.2-1.8,0.2c-0.8,0-1.5-0.1-2-0.4s-0.8-0.6-1-1.1
		s-0.3-1.3-0.3-2.7V124h-1.7v-1.8h1.7v-3.4l2.3-1.4v4.8h2.3v1.8h-2.3v8c0,0.7,0,1.1,0.1,1.3c0.1,0.2,0.2,0.3,0.4,0.5
		c0.2,0.1,0.4,0.2,0.8,0.2C364,133.9,364.4,133.9,364.8,133.8z"/>
	<path id="XMLID_66_" class="st1" d="M390.8,135.9v-1.7c-0.9,1.4-2.1,2-3.8,2c-1.1,0-2.1-0.3-3-0.9c-0.9-0.6-1.6-1.4-2.1-2.5
		c-0.5-1.1-0.8-2.3-0.8-3.7c0-1.4,0.2-2.6,0.7-3.7c0.5-1.1,1.1-2,2.1-2.6s1.9-0.9,3.1-0.9c0.8,0,1.6,0.2,2.2,0.5s1.2,0.8,1.6,1.4
		l0-6.8h2.3v18.9H390.8z M383.4,129c0,1.8,0.4,3.1,1.1,3.9s1.6,1.3,2.6,1.3c1,0,1.9-0.4,2.6-1.2c0.7-0.8,1.1-2.1,1.1-3.8
		c0-1.9-0.4-3.3-1.1-4.1c-0.7-0.9-1.6-1.3-2.7-1.3c-1,0-1.9,0.4-2.6,1.3C383.8,125.9,383.4,127.2,383.4,129z"/>
</g>
<rect x="5" y="112.5" class="st1" width="390" height="0.7"/>
<g>
	<polygon class="st2" points="213.7,68 291.7,0.7 311.3,18 311.3,6.7 326,6.7 326,29.7 402,91.2 291.7,20.7 	"/>
</g>
</svg>
