<svg xmlns="http://www.w3.org/2000/svg" viewBox="0 0 311.8 311.8"><circle fill="none" stroke="#E84539" stroke-width="7.289" stroke-miterlimit="10" cx="155.9" cy="155.9" r="81.3"/><g fill="#2A327F"><path d="M118.6 191.9c-13.3 0-24.1-10.8-24.1-24.1s10.8-24.1 24.1-24.1 24.1 10.8 24.1 24.1-10.8 24.1-24.1 24.1zm0-43.4c-10.7 0-19.3 8.7-19.3 19.3 0 10.7 8.7 19.3 19.3 19.3 10.7 0 19.3-8.7 19.3-19.3 0-10.6-8.6-19.3-19.3-19.3zm74.6 43.6c-13.3 0-24.1-10.8-24.1-24.1s10.8-24.1 24.1-24.1 24.1 10.8 24.1 24.1-10.8 24.1-24.1 24.1zm0-43.4c-10.7 0-19.3 8.7-19.3 19.3 0 10.7 8.7 19.3 19.3 19.3 10.7 0 19.3-8.7 19.3-19.3 0-10.7-8.7-19.3-19.3-19.3zm-1.2-12.4c-1.1 0-1.9-.9-1.9-1.9 0-1.1.8-1.9 1.9-1.9 3 0 5-.5 5.8-1.4.4-.4.9-1.3.8-3.5-.1-2.3-1-3.2-3.6-3.7-3.1-.6-8-.3-14.7.1-1.1.1-2-.7-2-1.8-.1-1.1.7-2 1.8-2 7-.4 12.1-.8 15.7-.1 4.3.8 6.5 3.1 6.7 7.2.2 2.8-.4 4.9-1.8 6.4-1.7 1.8-4.4 2.6-8.7 2.6z"/><path d="M193.4 171.5c-.9 0-1.8-.6-2.1-1.6l-13.3-47c-.3-1.1.3-2.3 1.5-2.7 1.1-.3 2.3.3 2.7 1.5l13.3 47.1c.3 1.1-.3 2.3-1.5 2.7h-.6z"/><path d="M115.9 167.3l21.5-34.6h44.9c2.9 0 3.7 1.8 1.8 3.9L153 171.3h-34.8c-2.7 0-3.7-1.8-2.3-4zm5.2-.3H151l26.9-30.1h-38.1L121.1 167z"/><path d="M138.79 125.156l15.327 43.266-4.525 1.602-15.326-43.265z"/><path d="M146.9 128.5h-17.2c-1.6 0-2.9-1.4-2.8-3v-1.6c0-1.7 1.3-2.9 2.9-2.7l17.3 2.2c1.6.2 2.8 1.4 2.8 2.8-.2 1.2-1.5 2.3-3 2.3z"/><circle cx="151.4" cy="168.6" r="5.5"/><path d="M151.4 175.3c-3.7 0-6.7-3-6.7-6.7s3-6.7 6.7-6.7 6.7 3 6.7 6.7-3 6.7-6.7 6.7zm0-11c-2.4 0-4.3 1.9-4.3 4.3s1.9 4.3 4.3 4.3 4.3-1.9 4.3-4.3-1.9-4.3-4.3-4.3z"/></g><path d="M52.8 137.5l-18-4.7 2.2-8.5c.3-1.2.8-2.3 1.4-3.2.6-.9 1.5-1.6 2.6-2 1.1-.4 2.3-.5 3.6-.1 1.4.4 2.5 1.1 3.2 2.2.8 1.1 1.1 2.4 1 3.9.1-.1.2-.1.4-.3.8-.5 1.4-.9 1.7-1.2.4-.3.8-.7 1.2-1.2.4-.5.7-1 .8-1.5.2-.7.2-1.4.2-2l3.6.5c.2 1 .2 2.1-.1 3.2-.2 1-.8 1.8-1.6 2.7-.8.8-1.7 1.5-2.5 2-.9.5-1.8 1-2.8 1.6-1 .6-1.8 1.1-2.2 1.5l-.2.9 6.4 1.7-.9 4.5zm-8.5-7l1-4c.2-.7.1-1.3-.2-1.9-.3-.5-.8-.9-1.4-1.1-.7-.2-1.3-.1-1.8.2-.5.3-.9.9-1 1.6l-1 4 4.4 1.2zm14.6-13.4l-17.1-7.3 1.8-4.2 17.1 7.3-1.8 4.2zm3.8-9l-15.8-9.8 4.4-7.1c1.5-2.4 3.4-3.9 5.7-4.6 2.3-.7 4.7-.2 7.2 1.3s3.9 3.5 4.4 5.8c.4 2.4-.1 4.8-1.6 7.2l-4.3 7.2zm-1-5.9l1.9-3c.8-1.3 1.1-2.6.7-3.9-.3-1.3-1.2-2.3-2.6-3.2-1.4-.9-2.8-1.2-4.1-.9-1.3.3-2.3 1.1-3.1 2.4l-1.9 3 9.1 5.6zm13.1-12.4L61.2 77.2l10.2-10.9 2.9 2.7-7.2 7.7 2.3 2.2 5.8-6.2 2.8 2.6-5.8 6.2 2.6 2.4 7.2-7.7 2.9 2.7-10.1 10.9zM93.4 72L83.3 56.5l12-7.8 2.2 3.3-8.3 5.5 2.5 3.8 7.1-4.6L101 60l-7.1 4.7 3.3 5.1-3.8 2.2zM104 54.3c-1-2.5-1.1-5-.1-7.4 1-2.4 2.7-4.1 5.2-5.1s5-1.1 7.4-.1c2.4 1 4.1 2.8 5.1 5.3s1 5 .1 7.3c-1 2.4-2.8 4.1-5.3 5.1s-4.9 1-7.3 0c-2.4-.8-4.1-2.6-5.1-5.1zm4.2-1.7c.6 1.4 1.5 2.3 2.7 2.9 1.3.6 2.6.6 3.9 0 1.4-.6 2.3-1.5 2.8-2.8s.5-2.6-.1-4-1.5-2.4-2.7-2.9c-1.2-.6-2.6-.6-3.9 0-1.3.6-2.3 1.5-2.8 2.7-.5 1.4-.5 2.7.1 4.1zm20.9 2l-3.3-18.3 8.7-1.6c1.2-.2 2.4-.2 3.5 0s2.1.7 2.9 1.5c.9.8 1.4 1.9 1.7 3.3.3 1.4 0 2.7-.7 3.9-.7 1.2-1.7 2-3.1 2.5.1.1.2.1.4.3.8.5 1.4.8 1.8 1.1.4.2.9.4 1.6.6s1.2.2 1.7.2c.8-.1 1.4-.4 1.9-.7l1.1 3.5c-.8.6-1.8 1.1-3 1.3-1 .2-2 .1-3.1-.3s-2.1-.9-2.9-1.4-1.7-1.2-2.7-1.9-1.7-1.1-2.2-1.4l-1 .2 1.2 6.5-4.5.7zm2.8-10.6l4.1-.7c.7-.1 1.3-.4 1.6-.9.4-.5.5-1.1.4-1.8-.1-.7-.4-1.2-1-1.5-.5-.3-1.1-.4-1.9-.3l-4.1.7.9 4.5zm24.4-6.7l.3-4.6 15.8 1.1-.3 4.6-5.5-.4-1 13.9-4.6-.3 1-13.9-5.7-.4zm18.3 15.5l4.8-17.9 4.4 1.2L182 43l8.4 2.3 1.9-6.9 4.4 1.2-4.8 17.9-4.4-1.2 1.9-7.1-8.4-2.3-2 7.1-4.4-1.2zm22 6.7l8.3-16.6 13.3 6.7-1.8 3.6-9.4-4.7-1.4 2.9 7.6 3.8-1.7 3.4-7.6-3.8-1.6 3.2 9.4 4.7-1.8 3.6-13.3-6.8zm27.7 5.2c1.9-2.2 4.1-3.4 6.6-3.5s4.8.8 6.9 2.6c1.8 1.6 2.8 3.2 2.9 5s-.4 3.5-1.9 5.2l-3.7-2.1c1.6-1.9 1.5-3.5-.2-5-1.1-1-2.3-1.4-3.6-1.2-1.3.1-2.5.8-3.6 2.1-1.1 1.2-1.6 2.5-1.5 3.8.1 1.3.7 2.4 1.8 3.4 1.5 1.3 3.3 1.9 5.5 1.9l-.6 4c-1.2.1-2.5-.1-4-.6s-2.7-1.2-3.7-2.1c-2.1-1.8-3.3-4-3.5-6.5s.6-4.8 2.6-7zm9.5 21.1l14.8-11.2 2.8 3.7-5.7 4.3 5.3 7 5.7-4.3 2.8 3.7-14.8 11.2-2.8-3.7 5.9-4.5-5.3-7-5.9 4.5-2.8-3.7zm13.1 18.9l16.4-8.8 2.2 4-16.4 8.8-2.2-4zm4.5 8.6l17.3-6.6 1.6 4.3-13.6 5.2 3.3 8.6-3.7 1.4-4.9-12.9zm5.8 16l18.3-3.2 1.5 8.2c.5 2.8.1 5.2-1.2 7.2s-3.4 3.3-6.3 3.8-5.3 0-7.2-1.4c-1.9-1.5-3.1-3.6-3.6-6.4l-1.5-8.2zm4.8 3.8l.6 3.5c.3 1.5.9 2.6 2 3.4 1.1.7 2.4 1 4 .7 1.7-.3 2.9-1 3.6-2 .8-1.1 1-2.4.7-3.9l-.6-3.5-10.3 1.8zM47.9 169.8c1.6-.2 2.9.2 4.1 1.2 1.2 1 1.9 2.7 2.3 4.9.2 1.2.2 2.3.1 3.5s-.3 2.1-.6 2.9l-3.9-.7c.3-.7.6-1.6.7-2.6.1-1 .1-1.9 0-2.8-.2-1.7-.8-2.4-1.8-2.3-.4.1-.6.2-.8.5-.2.3-.3.7-.4 1.3l-.5 3.1c-.2 1.6-.6 2.9-1.3 3.7s-1.5 1.3-2.6 1.5c-1.7.2-3.1-.2-4.3-1.3-1.2-1.1-2-2.8-2.3-4.9-.2-1.1-.2-2.3 0-3.5.1-1.2.4-2.1.6-2.8l4 .4c-.4.7-.6 1.6-.8 2.6-.2 1-.2 1.9-.1 2.8.1.8.4 1.5.7 1.9s.8.6 1.3.5c.3-.1.6-.3.8-.6s.3-.9.4-1.5l.4-3.3c.3-2.6 1.7-4.1 4-4.5zm-9.1 19.4l18.4 1 1.5 4.7-14.3 11.5-1.3-4.1 2.6-2.1-2.2-6.8-3.4-.1-1.3-4.1zm8 4.2l1.6 4.8 5.6-4.4-7.2-.4zm0 18.3l15-8.4 1.8 3.2-4.9 12.6 9.1-5.1 2.1 3.7-15 8.4-1.8-3.2 4.9-12.6-9.1 5.1-2.1-3.7zm17.1 26.4l12.6-11.7 9.1 9.7-2.7 2.5-6.3-6.8-3 2.8 5.4 5.8-2.7 2.5-5.4-5.8-4.1 3.8-2.9-2.8zM77.6 252l10.3-13.7 6.5 4.9c.9.7 1.7 1.5 2.2 2.4s.8 1.9.8 2.9c0 1.1-.4 2.1-1.2 3.2-.8 1.1-1.8 1.7-3.1 2s-2.5.1-3.7-.5c0 .1 0 .2.1.4.2.8.3 1.5.4 1.9s.3.9.6 1.5.6 1 .9 1.2c.6.4 1.1.7 1.6.8l-1.7 2.9c-1-.2-1.9-.6-2.7-1.2-.7-.5-1.3-1.3-1.7-2.3-.4-1-.7-1.9-.8-2.9-.1-.9-.2-1.9-.4-3-.1-1.1-.3-1.9-.5-2.4l-.7-.5-3.7 4.9-3.2-2.5zm8.9-4.8l3.1 2.3c.6.4 1.1.6 1.7.5.6-.1 1-.3 1.4-.9.4-.5.5-1.1.4-1.6-.1-.5-.4-1-1-1.4l-3.1-2.3-2.5 3.4zm7.8 16.9l13.6-12.4 4.5 2.2-1.8 18.3-3.8-1.9.4-3.3-6.4-3.2-2.5 2.3-4-2zm8.6-2.7l4.5 2.3.8-7.1-5.3 4.8zm13.1 12.8l4.6-16.6 3.6 1 5.6 12.3 2.8-10.1 4.1 1.1-4.6 16.6-3.5-1-5.6-12.4-2.8 10.1-4.2-1zm23.3-.6l.3-3.3 10.3 1-.3 3.3-10.3-1zm16.6 7.4l-1.2-17.1 3.7-.3 9.3 9.8-.7-10.4 4.2-.3 1.2 17.1-3.7.2-9.3-9.8.7 10.4-4.2.4zm24.2-2.6l-4.3-16.6 13.3-3.5.9 3.6-9.4 2.5.7 2.9 7.6-2 .9 3.4-7.6 2 .8 3.2 9.4-2.5.9 3.6-13.2 3.4zm10.7-20l4.1-2.1 9.8 8.9-.7-7.4-4.3-4 4.1-2.1 9 8.6-1.5-12.4 4.1-2.1 2 18.3-4.1 2.1-5.3-4.7.6 7.1-4.1 2.1-13.7-12.3zm29.6-16.7l-.2-.2 3.5-3.3 7.4 2.1-1.7-7.5 3.4-3.2.2.2 2.3 11.9 4.6 4.8-3.1 2.9-4.5-4.8-11.9-2.9zm19.8-7.4c-2-1.5-3.2-3.4-3.6-5.8-.3-2.4.2-4.5 1.7-6.5s3.4-3.2 5.8-3.6 4.5.2 6.6 1.8c2 1.5 3.2 3.4 3.5 5.8.3 2.4-.2 4.5-1.8 6.6-1.5 2-3.4 3.2-5.8 3.5-2.2.2-4.4-.3-6.4-1.8zm2.4-3.4c1.1.8 2.3 1.1 3.5 1 1.3-.2 2.3-.8 3.1-1.9.8-1.1 1.1-2.3.9-3.5s-.9-2.3-2-3.1c-1.1-.8-2.3-1.2-3.6-1-1.3.2-2.3.8-3.1 1.9-.8 1.1-1.1 2.3-.9 3.5.4 1.3 1 2.3 2.1 3.1zm18.5-11.6l-15.5-7.4 3.5-7.3c.5-1.1 1.1-1.9 1.9-2.6.8-.7 1.7-1.2 2.7-1.4 1.1-.2 2.2 0 3.3.5 1.2.6 2.1 1.5 2.5 2.6.5 1.2.6 2.4.2 3.7.1 0 .2-.1.4-.2.8-.3 1.4-.6 1.8-.8.4-.2.8-.5 1.3-.8.5-.4.8-.8 1-1.2.3-.6.5-1.2.5-1.8l3.2 1.1c0 1-.2 1.9-.7 2.9-.4.8-1 1.5-1.9 2.2-.9.6-1.8 1.1-2.6 1.4s-1.8.6-2.9 1c-1 .3-1.8.7-2.2.9l-.4.8 5.5 2.7-1.6 3.7zm-6.5-7.9l1.7-3.5c.3-.6.4-1.2.2-1.7s-.5-.9-1.1-1.2c-.6-.3-1.1-.3-1.7-.1-.5.2-.9.6-1.2 1.2l-1.7 3.5 3.8 1.8zm15.7-13l-16.6-4.3 1.1-4.1 6.7 1.7.7-2.9-5.6-5.9 1.1-4.2.6.2 6.6 7.4c.2-.1.9-.3 2-.7 1.1-.3 2-.7 2.7-1.1s1.1-.9 1.3-1.5c.2-.7.2-1.3.1-1.8l3.4.4c.2 1 .2 2-.1 3.2-.2.8-.6 1.4-1.1 2s-1.1 1.1-1.8 1.4c-.7.3-1.4.6-2 .9-.6.2-1.3.4-2 .7-.7.2-1.2.4-1.5.5l-.6 2.4 6.4 1.7-1.4 4z" fill="#2A327F"/><circle fill="none" stroke="#E84539" stroke-width="13.382" stroke-miterlimit="10" cx="155.9" cy="155.9" r="149.2"/></svg>