<?xml version="1.0" encoding="utf-8"?>
<!-- Generator: Adobe Illustrator 19.0.0, SVG Export Plug-In . SVG Version: 6.00 Build 0)  -->
<svg version="1.1" id="Layer_1" xmlns="http://www.w3.org/2000/svg" xmlns:xlink="http://www.w3.org/1999/xlink" x="0px" y="0px"
	 viewBox="0 0 430.8 90.5" style="enable-background:new 0 0 430.8 90.5;" xml:space="preserve">
<style type="text/css">
	.st0{fill-rule:evenodd;clip-rule:evenodd;fill:#FFFFFF;}
</style>
<g>
	<path class="st0" d="M193,43.2h-12.7V27.6h11c4.9,0,11,1.3,10.8,7.4C201.9,40.5,198.5,43.2,193,43.2L193,43.2z M227.3,78.2
		l-13.9-20.2c2.7-1.4,3.7-1.8,6.2-3.9c5.3-4.4,8.1-9.1,9.2-16c1.7-10.2-1.5-19.5-9.4-26.1C213.6,7.3,203.7,5,195.6,5h-42.2v80.6
		h26.9v-23c6.8,0,5.3-0.6,7.5,2.6l12.8,19.4c0.4,0.7,0.5,1.1,1.6,1.1h46.8l18.2-34.6l17.8,34.6h25.5L267.1,0L227.3,78.2L227.3,78.2z
		 M40.6,57.3c2.9,0.6,10.6,2.1,8.5,6.1c-2.4,4.8-19.7,0.9-24.8-1.4c-6.5-3.2-6.5-3.2-9.9-5.7L0,73.7C14.2,83.2,23.2,87,41.3,87
		c17.5-0.1,34.2-6.6,35.4-24.4c1.6-24.7-20.6-25.1-37.9-29.9C36,31.9,31.1,31,32,27.3c0.7-2.9,7.2-2.4,9.8-2.2
		c6.7,0.7,14.7,3.8,19.9,7.5l13.2-18C62.9,6.3,52.4,3.1,37.8,3.5c-16.6,0.4-32.2,7.1-33.4,26C3.1,49.8,25,54.2,40.6,57.3L40.6,57.3z
		 M75.1,27.8h23.8v57.8H126V27.8h23.8V5H75.1V27.8L75.1,27.8z M327.1,90.5L370.6,5h-25.9l-17.3,34.3L309.8,5h-25.9L327.1,90.5
		L327.1,90.5z M410.9,16.6h1.7l0.5-8.6l2.9,8.4h0.7h0h0.7l2.9-8.4l0.5,8.6h1.7l-0.7-10.8h-2.4l-2.6,8.2L414,5.8h-2.4L410.9,16.6
		L410.9,16.6z M402.2,7.2h3.4v9.4h1.7V7.2h3.4V5.8h-8.4V7.2L402.2,7.2z M387.4,0.1l43.4,85.4h-25.9l-17.3-34.3l-17.5,34.3h-25.9
		L387.4,0.1L387.4,0.1z"/>
</g>
</svg>
